<?xml version="1.0" encoding="UTF-8"?>
<svg width="100px" height="100px" viewBox="0 0 100 100" version="1.1"
     xmlns="http://www.w3.org/2000/svg">
   <title>add</title>
   <g id="add" stroke="none" stroke-width="1" fill="none" fill-rule="evenodd">
      <path
         d="M50.538329,6 C26.0077519,6 6,25.9482759 6,50.5 C6,75.0517241 25.9310939,95 50.538329,95 C75.0689061,95 95,75.0517241 95,50.5 C95,25.9482759 75.0689061,6 50.538329,6 L50.538329,6 Z M50.538329,12.2146552 C71.6192937,12.2146552 88.7906977,29.4008621 88.7906977,50.5 C88.7906977,71.5991379 71.6192937,88.7853448 50.538329,88.7853448 C29.4573643,88.7853448 12.2859604,71.5991379 12.2859604,50.5 C12.2859604,29.4008621 29.4573643,12.2146552 50.538329,12.2146552 Z M50.538329,26.4086207 C48.7751938,26.4086207 47.3953488,27.7896552 47.3953488,29.5543103 L47.3953488,46.8939655 L30.0706288,46.8939655 C28.3074935,46.8939655 26.9276486,48.275 26.9276486,50.0396552 C26.9276486,51.8043103 28.3074935,53.1853448 30.0706288,53.1853448 L47.3953488,53.1853448 L47.3953488,70.525 C47.3953488,72.2896552 48.7751938,73.6706897 50.538329,73.6706897 C52.3014643,73.6706897 53.6813092,72.2896552 53.6813092,70.525 L53.6813092,53.1853448 L71.0060293,53.1853448 C72.7691645,53.1853448 74.1490095,51.8043103 74.1490095,50.0396552 C74.1490095,48.275 72.7691645,46.9706897 71.0060293,46.9706897 L53.6813092,46.9706897 L53.6813092,29.5543103 C53.6813092,27.7896552 52.3014643,26.4086207 50.538329,26.4086207 Z"
         fill="#000000"></path>
   </g>
</svg>