<?xml version="1.0" encoding="UTF-8"?>
<svg width="100px" height="100px" viewBox="0 0 100 100" version="1.1"
     xmlns="http://www.w3.org/2000/svg">
    <title>config</title>
    <g id="config" stroke="none" stroke-width="1" fill="none" fill-rule="evenodd">
        <path
                d="M9.14027539,41.2931034 C7.37865749,41.2931034 6,42.6741379 6,44.4387931 L6,56.7146552 C6,58.4793103 7.37865749,59.8603448 9.14027539,59.8603448 L14.8846816,59.8603448 C15.7271945,63.1594828 17.0292599,66.3051724 18.7908778,69.2206897 L14.8080895,73.2103448 C13.5826162,74.437931 13.5826162,76.4327586 14.8080895,77.6603448 L23.4629948,86.3301724 C24.6884682,87.5577586 26.6798623,87.5577586 27.9053356,86.3301724 L31.964716,82.2637931 C34.8752151,83.9517241 38.0154905,85.2560345 41.3089501,86.1 L41.3089501,91.8543103 C41.3089501,93.6189655 42.6876076,95 44.4492255,95 L56.7039587,95 C58.4655766,95 59.8442341,93.6189655 59.8442341,91.8543103 L59.8442341,86.0232759 C63.1376936,85.1793103 66.2013769,83.875 69.1118761,82.187069 L73.2478485,86.3301724 C74.4733219,87.5577586 76.464716,87.5577586 77.6901893,86.3301724 L86.3450947,77.6603448 C87.570568,76.4327586 87.570568,74.437931 86.3450947,73.2103448 L82.2091222,69.0672414 C83.894148,66.1517241 85.1962134,63.0827586 86.0387263,59.7836207 L91.8597246,59.7836207 C93.6213425,59.7836207 95,58.4025862 95,56.637931 L95,44.362069 C95,42.5974138 93.6213425,41.2163793 91.8597246,41.2163793 L86.0387263,41.2163793 C85.1962134,37.9172414 83.894148,34.8482759 82.2091222,31.9327586 L86.3450947,27.7896552 C87.570568,26.562069 87.570568,24.5672414 86.3450947,23.3396552 L77.6135972,14.7465517 C76.3881239,13.5189655 74.3967298,13.5189655 73.1712565,14.7465517 L69.1118761,18.812931 C66.2013769,17.125 63.0611015,15.8206897 59.767642,14.9 L59.767642,9.14568966 C59.767642,7.38103448 58.3889845,6 56.6273666,6 L44.3726334,6 C42.6110155,6 41.232358,7.38103448 41.232358,9.14568966 L41.232358,14.9 C37.9388985,15.7439655 34.7986231,17.0482759 31.8881239,18.7362069 L27.8287435,14.6698276 C26.6032702,13.4422414 24.6118761,13.4422414 23.3864028,14.6698276 L14.7314974,23.4163793 C13.5060241,24.6439655 13.5060241,26.6387931 14.7314974,27.8663793 L18.7142857,31.8560345 C16.9526678,34.7715517 15.6506024,37.9172414 14.8080895,41.2931034 L9.14027539,41.2931034 L9.14027539,41.2931034 Z M53.4870912,12.3681034 L53.4870912,17.5086207 C53.4870912,19.0431034 54.5593804,20.3474138 56.0146299,20.5775862 C60.2271945,21.3448276 64.1333907,23.0327586 67.6566265,25.4112069 C68.8820998,26.2551724 70.5671256,26.1017241 71.6394148,25.0275862 L75.3158348,21.3448276 L79.5283993,25.5646552 L75.8519793,29.2474138 C74.7796902,30.3215517 74.626506,32.0094828 75.4690189,33.237069 C77.8433735,36.7663793 79.4518072,40.6793103 80.2943201,44.8991379 C80.6006885,46.3568966 81.9027539,47.5077586 83.3580034,47.5077586 L88.5662651,47.5077586 L88.5662651,53.4922414 L83.3580034,53.4922414 C81.8261618,53.4922414 80.5240964,54.5663793 80.2943201,56.0241379 C79.5283993,60.2439655 77.9199656,64.1568966 75.4690189,67.6862069 C74.626506,68.9137931 74.7796902,70.6017241 75.8519793,71.6758621 L79.5283993,75.3586207 L75.3158348,79.5784483 L71.6394148,75.8956897 C70.5671256,74.8215517 68.8820998,74.6681034 67.6566265,75.512069 C64.1333907,77.9672414 60.2271945,79.5784483 56.0146299,80.3456897 C54.5593804,80.6525862 53.4870912,81.9568966 53.4870912,83.4146552 L53.4870912,88.5551724 L47.5129088,88.5551724 L47.5129088,83.4146552 C47.5129088,81.8801724 46.4406196,80.5758621 44.908778,80.3456897 C40.6196213,79.5784483 36.7134251,77.9672414 33.1901893,75.512069 C31.964716,74.6681034 30.2796902,74.8215517 29.207401,75.8956897 L25.6075731,79.5017241 L21.3950086,75.512069 L24.9948365,71.9060345 C26.0671256,70.8318966 26.2203098,69.1439655 25.3777969,67.9163793 C22.9268503,64.387069 21.3184165,60.3974138 20.4759036,56.1775862 C20.1695353,54.7198276 18.944062,53.6456897 17.4122203,53.6456897 L12.3571429,53.6456897 L12.3571429,47.6612069 L17.4122203,47.6612069 C18.8674699,47.5844828 20.1695353,46.5103448 20.4759036,44.9758621 C21.2418244,40.6793103 22.9268503,36.7663793 25.3012048,33.237069 C26.1437177,32.0094828 25.9905336,30.3215517 24.9182444,29.2474138 L21.3950086,25.6413793 L25.6075731,21.4215517 L29.207401,25.0275862 C30.2796902,26.1017241 31.964716,26.2551724 33.1901893,25.4112069 C36.7134251,22.9560345 40.6962134,21.3448276 44.908778,20.5775862 C46.3640275,20.2706897 47.5129088,19.0431034 47.5129088,17.5086207 L47.5129088,12.3681034 L53.4870912,12.3681034 Z M50.4234079,29.4775862 C38.5516351,29.4775862 28.9010327,39.1448276 28.9010327,51.037069 C28.9010327,62.9293103 38.5516351,72.5965517 50.4234079,72.5965517 C62.2951807,72.5965517 71.9457831,62.9293103 71.9457831,51.037069 C71.9457831,39.1448276 62.2951807,29.4775862 50.4234079,29.4775862 Z M50.4234079,35.7689655 C58.848537,35.7689655 65.6652324,42.5974138 65.6652324,51.037069 C65.6652324,59.4767241 58.848537,66.3051724 50.4234079,66.3051724 C41.9982788,66.3051724 35.1815835,59.4767241 35.1815835,51.037069 C35.1815835,42.5974138 41.9982788,35.7689655 50.4234079,35.7689655 Z"
                id="settings-1" fill="#000000"></path>
    </g>
</svg>
