<?xml version="1.0" encoding="UTF-8"?>
<svg width="100px" height="100px" viewBox="0 0 100 100" version="1.1"
     xmlns="http://www.w3.org/2000/svg">
    <title>dingtalk</title>
    <g id="dingtalk" stroke="none" stroke-width="1" fill="none" fill-rule="evenodd">
        <g id="ant-design:dingtalk-outlined" fill="#000000" fill-rule="nonzero">
            <g id="Icon">
                <path d="M56.0253906,24.6582031 C41.2597656,19.2773438 19.6582031,9.44335938 19.6582031,9.44335938 C18.125,9.04296875 17.9101562,10.5273438 17.9101562,10.5273438 C17.421875,16.4941406 21.1914062,26.2011719 23.1445312,28.3789062 C25.0878906,30.5566406 54.3066406,39.4824219 54.3066406,39.4824219 C54.3066406,39.4824219 31.8359375,34.9511719 26.4160156,33.3886719 C20.9863281,31.8261719 22.7148438,35.1269531 22.7148438,35.1269531 C23.828125,41.1523438 29.0527344,47.9980469 33.1835938,48.6425781 C37.3046875,49.2871094 54.6777344,49.0332031 54.6777344,49.0332031 C54.6777344,49.0332031 51.2109375,49.4335938 45.5761719,50.1953125 C41.40625,50.7617187 36.1035156,51.4160156 34.7265625,51.9335937 C31.4941406,53.1542969 37.0703125,58.046875 37.0703125,58.046875 C45.3417969,65.546875 49.7363281,62.9785156 49.7363281,62.9785156 C52.9882812,61.9335937 55.7324219,61.171875 58.0566406,60.6152344 L55.1757812,72.5683594 L63.4375,72.5683594 L58.8867188,90.625 L78.9355469,64.0722656 L68.4375,64.0722656 L70.6152344,60.2929688 C70.6445312,60.3417969 70.6542969,60.3710938 70.6542969,60.3710938 C70.6542969,60.3710938 78.1054687,48.4472656 80.9570312,42.3632812 L81.015625,42.265625 L81.0058594,42.265625 C81.4941406,41.2109375 81.8457031,40.3417969 81.9824219,39.7460938 C83.6425781,32.7832031 70.8007812,30.0390625 56.0253906,24.6582031 Z"
                      id="Icon-路径"></path>
                <rect id="Icon-矩形" fill-opacity="0" x="0" y="0" width="100" height="100"></rect>
            </g>
        </g>
    </g>
</svg>
