<?xml version="1.0" encoding="UTF-8"?>
<svg width="100px" height="100px" viewBox="0 0 100 100" version="1.1"
     xmlns="http://www.w3.org/2000/svg">
    <title>edit</title>
    <g id="edit" stroke="none" stroke-width="1" fill="none" fill-rule="evenodd">
        <path d="M70.256871,6.13095039 C71.8562368,4.62301654 74.3023256,4.62301654 75.807611,6.13095039 L75.807611,6.13095039 L93.8710359,24.4146484 C95.3763214,26.0168281 95.3763214,28.4672206 93.8710359,29.9751544 L93.8710359,29.9751544 L30.8372093,93.1198845 C30.0845666,93.8738515 29.1437632,94.2508349 28.1088795,94.2508349 L28.1088795,94.2508349 L9.85729387,94.3450808 C8.82241015,94.3450808 7.88160677,93.9680973 7.12896406,93.2141304 C6.37632135,92.4601635 6,91.4234589 6,90.3867544 L6,90.3867544 L6.09408034,72.0088106 C6.09408034,70.9721061 6.56448203,70.0296474 7.2230444,69.2756805 L7.2230444,69.2756805 L57.6501057,18.8541423 Z M60.3784355,27.1477785 L13.9027484,73.7052362 L13.8086681,86.4284281 L26.6035941,86.3341822 L73.0792812,39.8709703 L60.3784355,27.1477785 Z M73.0792812,14.4245866 L65.9291755,21.5872724 L78.6300211,34.3104643 L85.7801268,27.1477785 L73.0792812,14.4245866 Z" fill="#000000"></path>
    </g>
</svg>