<?xml version="1.0" encoding="UTF-8"?>
<svg width="88px" height="88px" viewBox="0 0 88 88" version="1.1"
     xmlns="http://www.w3.org/2000/svg">
    <title>excel</title>
    <g id="excel" stroke="none" stroke-width="1" fill="none" fill-rule="evenodd">
        <rect id="矩形" fill="#FFFFFF" x="5" y="10" width="81" height="65"></rect>
        <g id="Icon">
            <path d="M83.940625,7.765625 L52.284375,7.765625 L52.284375,0.30625 L0.25,8.3375 L0.25,78.734375 L52.284375,87.696875 L52.284375,76.640625 L83.940625,76.640625 C85.936563,76.7417403 87.6390477,75.2110403 87.75,73.215625 L87.75,11.1875 C87.6373975,9.19332825 85.9354103,7.6644718 83.940625,7.765625 Z M84.440625,73.784375 L52.178125,73.784375 L52.125,67.88125 L59.896875,67.88125 L59.896875,61.00625 L52.065625,61.00625 L52.028125,56.94375 L59.896875,56.94375 L59.896875,50.06875 L51.96875,50.06875 L51.93125,46.00625 L59.896875,46.00625 L59.896875,39.13125 L51.90625,39.13125 L51.90625,35.06875 L59.896875,35.06875 L59.896875,28.19375 L51.90625,28.19375 L51.90625,24.13125 L59.896875,24.13125 L59.896875,17.25625 L51.90625,17.25625 L51.90625,11.00625 L84.440625,11.00625 L84.440625,73.784375 Z"
                  id="Icon-形状" fill="#20744A"></path>
            <polygon id="Icon-路径" fill="#20744A" fill-rule="nonzero"
                     points="64.271875 17.246875 77.78125 17.246875 77.78125 24.121875 64.271875 24.121875"></polygon>
            <polygon id="Icon-路径" fill="#20744A" fill-rule="nonzero"
                     points="64.271875 28.1875 77.78125 28.1875 77.78125 35.0625 64.271875 35.0625"></polygon>
            <polygon id="Icon-路径" fill="#20744A" fill-rule="nonzero"
                     points="64.271875 39.128125 77.78125 39.128125 77.78125 46.003125 64.271875 46.003125"></polygon>
            <polygon id="Icon-路径" fill="#20744A" fill-rule="nonzero"
                     points="64.271875 50.06875 77.78125 50.06875 77.78125 56.94375 64.271875 56.94375"></polygon>
            <polygon id="Icon-路径" fill="#20744A" fill-rule="nonzero"
                     points="64.271875 61.009375 77.78125 61.009375 77.78125 67.884375 64.271875 67.884375"></polygon>
            <polygon id="Icon-路径" fill="#FFFFFF"
                     points="13.834375 27.353125 20.540625 26.96875 24.75625 38.559375 29.7375 26.490625 36.44375 26.10625 28.3 42.5625 36.44375 59.059375 29.353125 58.58125 24.565625 46.00625 19.775 58.103125 13.259375 57.528125 20.828125 42.95625"></polygon>
        </g>
    </g>
</svg>
