<?xml version="1.0" encoding="UTF-8"?>
<svg width="100px" height="100px" viewBox="0 0 100 100" version="1.1"
     xmlns="http://www.w3.org/2000/svg">
    <title>feishu</title>
    <g id="feishu" stroke="none" stroke-width="1" fill="none" fill-rule="evenodd">
        <g id="layer102" transform="translate(55.516364, 35.790545)" fill="#000000"
           fill-rule="nonzero">
            <path d="M6.89345455,38.6421818 L0,36.8298182 L0,20.292 L0,3.75418182 L7.37890909,1.87709091 C11.4243636,0.841454545 14.8225455,6.9388939e-18 14.9843636,0.0323636364 C15.1138182,0.0323636364 15.2109091,9.12654545 15.2109091,20.2596364 L15.2109091,40.4869091 L14.4989091,40.4545455 C14.0781818,40.4545455 10.6476364,39.6130909 6.89345455,38.6421818 Z"
                  id="路径"></path>
        </g>
        <g id="layer103" transform="translate(30.272727, 45.823273)" fill="#000000"
           fill-rule="nonzero">
            <path d="M0,20.292 C0,9.15890909 0.0970909091,0.0323636364 0.258909091,0.0323636364 C0.388363636,6.9388939e-18 3.78654545,0.841454545 7.86436364,1.87709091 L15.2109091,3.75418182 L15.1461818,20.2272727 L15.0490909,36.7003636 L8.44690909,38.4156364 C4.82218182,39.3541818 1.424,40.228 0.938545455,40.3250909 L0,40.5516364 L0,20.292 Z"
                  id="路径"></path>
        </g>
        <path d="M6,49.7069091 C6,30.6770909 6.09709091,15.1101818 6.25890909,15.1101818 C6.38836364,15.1101818 9.78654545,15.9516364 13.832,16.9549091 L21.2109091,18.832 L21.2109091,49.6745455 C21.2109091,66.6007273 21.1461818,80.4847273 21.0814545,80.4847273 C20.9843636,80.4847273 17.5538182,81.3585455 13.476,82.3941818 L6,84.3036364 L6,49.7069091 Z"
              id="路径" fill="#000000" fill-rule="nonzero"></path>
        <g id="layer104" transform="translate(79.789091, 11.000000)" fill="#000000"
           fill-rule="nonzero">
            <path d="M0,38.5774545 C0,1.84472727 0.0323636364,-0.129454545 0.582545455,0.0323636364 C0.873818182,0.129454545 3.75418182,0.873818182 6.95818182,1.68290909 C10.1621818,2.52436364 13.3338182,3.33345455 14.0134545,3.49527273 L15.2109091,3.81890909 L15.1461818,38.6421818 L15.0490909,73.4978182 L8.47927273,75.1807273 C4.88690909,76.1192727 1.48872727,76.9607273 0.970909091,77.0901818 L0,77.3167273 L0,38.5774545 Z"
                  id="路径"></path>
        </g>
    </g>
</svg>
