<?xml version="1.0" encoding="UTF-8"?>
<svg width="100px" height="100px" viewBox="0 0 100 100" version="1.1"
     xmlns="http://www.w3.org/2000/svg">
    <title>folder</title>
    <g id="folder" stroke="none" stroke-width="1" fill="none" fill-rule="evenodd">
        <path
                d="M9.14298019,88.7241379 L91.8570198,88.7241379 C93.620155,88.7241379 95,87.3403358 95,85.5721443 L95,24.5310967 C95,22.7629051 93.620155,21.379103 91.8570198,21.379103 L51.918174,21.379103 L44.4823428,13.0762905 C43.8690784,12.3843895 43.0258398,12 42.1826012,12 L9.14298019,12 C7.37984496,12 6,13.3838021 6,15.1519936 L6,85.5721443 C6,87.3403358 7.45650301,88.7241379 9.14298019,88.7241379 L9.14298019,88.7241379 Z M12.2859604,18.3808652 L40.8027562,18.3808652 L48.2385874,26.6836777 C48.8518519,27.3755787 49.6950904,27.7599682 50.538329,27.7599682 L88.7906977,27.7599682 L88.7906977,82.5739064 L12.2859604,82.5739064 L12.2859604,18.3808652 L12.2859604,18.3808652 Z"
                fill="#000000"></path>
    </g>
</svg>
