<?xml version="1.0" encoding="UTF-8"?>
<svg width="100px" height="100px" viewBox="0 0 100 100" version="1.1"
     xmlns="http://www.w3.org/2000/svg">
    <title>fullsmile</title>
    <g id="fullsmile" stroke="none" stroke-width="1" fill="none" fill-rule="evenodd">
        <g id="fa-solid:smile" transform="translate(6.000000, 6.000000)" fill="#000000"
           fill-rule="nonzero">
            <g id="Icon">
                <path d="M44.5,1.390625 C19.9173387,1.390625 0,20.6855469 0,44.5 C0,68.3144531 19.9173387,87.609375 44.5,87.609375 C69.0826613,87.609375 89,68.3144531 89,44.5 C89,20.6855469 69.0826613,1.390625 44.5,1.390625 Z M58.8548387,30.59375 C62.0308468,30.59375 64.5967742,33.0794922 64.5967742,36.15625 C64.5967742,39.2330078 62.0308468,41.71875 58.8548387,41.71875 C55.6788306,41.71875 53.1129032,39.2330078 53.1129032,36.15625 C53.1129032,33.0794922 55.6788306,30.59375 58.8548387,30.59375 Z M30.1451613,30.59375 C33.3211694,30.59375 35.8870968,33.0794922 35.8870968,36.15625 C35.8870968,39.2330078 33.3211694,41.71875 30.1451613,41.71875 C26.9691532,41.71875 24.4032258,39.2330078 24.4032258,36.15625 C24.4032258,33.0794922 26.9691532,30.59375 30.1451613,30.59375 Z M65.0991935,60.1792969 C59.9852823,66.1242187 52.484879,69.53125 44.5,69.53125 C36.515121,69.53125 29.0147177,66.1242187 23.9008065,60.1792969 C21.4604839,57.3458984 25.8745968,53.7998047 28.3149194,56.6158203 C32.3342742,61.2917969 38.2197581,63.9513672 44.5,63.9513672 C50.7802419,63.9513672 56.6657258,61.2744141 60.6850806,56.6158203 C63.0895161,53.7998047 67.5215726,57.3458984 65.0991935,60.1792969 Z"
                      id="Icon-形状"></path>
                <rect id="Icon-矩形" fill-opacity="0" x="0" y="0" width="89" height="89"></rect>
            </g>
        </g>
    </g>
</svg>
