<?xml version="1.0" encoding="UTF-8"?>
<svg width="88px" height="63px" viewBox="0 0 88 63" version="1.1"
     xmlns="http://www.w3.org/2000/svg">
    <title>image</title>
    <g id="image" stroke="none" stroke-width="1" fill="none" fill-rule="evenodd">
        <g id="vscode-icons:file-type-image" fill-rule="nonzero">
            <g id="Icon">
                <polyline id="Icon-路径" fill="#2DCC9F" points="87.75 0.284375 87.75 63.715625 0.25 63.715625 0.25 0.284375 87.75 0.284375"></polyline>
                <path d="M69.725,8.690625 C66.3942544,7.98776008 63.0506517,9.82817577 61.8626994,13.0182627 C60.6747472,16.2083497 62.0001794,19.7874611 64.9793815,21.4343492 C67.9585836,23.0812373 71.6944135,22.2999665 73.763983,19.5972332 C75.8335525,16.8944998 75.6136419,13.0841917 73.246875,10.6375 C72.2919743,9.65362619 71.0660575,8.97594546 69.725,8.690625" id="Icon-路径" fill="#FFFFFF"></path>
                <path d="M50.596875,44.8125 C44.921875,36.9208333 39.2447917,29.0302083 33.565625,21.140625 L8.309375,56.26875 L42.371875,56.26875 C45.1135417,52.4520833 47.8572917,48.6364583 50.603125,44.821875" id="Icon-路径" fill="#FFFFFF"></path>
                <path d="M62.928125,32 C57.109375,40.0875 51.2927083,48.1760417 45.478125,56.265625 L80.38125,56.265625 C74.5666667,48.1760417 68.7489583,40.0875 62.928125,32 Z" id="Icon-路径" fill="#FFFFFF"></path>
            </g>
        </g>
    </g>
</svg>