<?xml version="1.0" encoding="UTF-8"?>
<svg width="100px" height="100px" viewBox="0 0 100 100" version="1.1"
     xmlns="http://www.w3.org/2000/svg">
    <title>link</title>
    <g id="link" stroke="none" stroke-width="1" fill="none" fill-rule="evenodd">
        <path d="M28.5752365,40.4316423 L9.67325881,59.4101462 C4.7755804,64.3078246 4.7755804,72.1900258 9.67325881,77.0877042 L22.9122958,90.3267412 C25.2846088,92.6990542 28.422184,94 31.7893379,94 C35.1564918,94 38.2940671,92.6990542 40.6663801,90.3267412 L59.4918315,71.3482373 C61.8641445,68.9759243 63.1650903,65.8383491 63.1650903,62.4711952 C63.1650903,62.3181427 63.1650903,62.2416165 63.0885641,62.0885641 C63.2416165,62.0885641 63.3181427,62.1650903 63.4711952,62.1650903 C66.8383491,62.1650903 69.9759243,60.8641445 72.3482373,58.4918315 L91.3267412,39.5133276 C96.2244196,34.6156492 96.2244196,26.733448 91.3267412,21.8357696 L78.0877042,8.59673259 C75.7153912,6.30094583 72.577816,5 69.2106621,5 C65.8435082,5 62.7824592,6.30094583 60.4101462,8.67325881 L41.4316423,27.5752365 C39.0593293,29.9475494 37.7583835,33.0851247 37.7583835,36.4522786 C37.7583835,36.605331 37.7583835,36.6818573 37.8349097,36.8349097 C37.6818573,36.8349097 37.605331,36.7583835 37.4522786,36.7583835 C34.0851247,36.7583835 30.9475494,38.0593293 28.5752365,40.4316423 L28.5752365,40.4316423 Z M46.2527945,32.3963887 L65.2312984,13.4178848 C66.3026655,12.3465176 67.7566638,11.7343078 69.2871883,11.7343078 C70.8177128,11.7343078 72.2717111,12.3465176 73.3430782,13.4178848 L86.5821152,26.6569218 C88.8013758,28.8761823 88.8013758,32.4729149 86.5821152,34.6921754 L67.5270851,53.6706793 C65.3843508,55.8134136 61.6345658,55.8134136 59.4918315,53.6706793 L55.2828891,49.4617369 L59.1092003,45.6354256 C60.4101462,44.3344798 60.4101462,42.1152193 59.1092003,40.8142734 C57.8082545,39.5133276 55.588994,39.5133276 54.2880482,40.8142734 L50.4617369,44.6405847 L46.2527945,40.4316423 C45.1814273,39.3602752 44.5692175,37.9062769 44.5692175,36.3757524 C44.5692175,34.8452279 45.1814273,33.4677558 46.2527945,32.3963887 L46.2527945,32.3963887 Z M41.4316423,45.2527945 L45.6405847,49.4617369 L41.8142734,53.2880482 C40.5133276,54.588994 40.5133276,56.8082545 41.8142734,58.1092003 C42.5030095,58.7979364 43.3447979,59.1040413 44.1865864,59.1040413 C45.0283749,59.1040413 45.9466896,58.7979364 46.5588994,58.1092003 L50.3852107,54.2828891 L54.5941531,58.4918315 C55.6655202,59.5631986 56.27773,61.0171969 56.27773,62.5477214 C56.27773,64.0782459 55.6655202,65.5322442 54.5941531,66.6036113 L35.6156492,85.5821152 C33.4729149,87.7248495 29.7231298,87.7248495 27.5803955,85.5821152 L14.4178848,72.266552 C12.1986242,70.0472915 12.1986242,66.4505589 14.4178848,64.2312984 L33.3963887,45.2527945 C34.4677558,44.1814273 35.9217541,43.5692175 37.4522786,43.5692175 C38.9062769,43.5692175 40.3602752,44.1814273 41.4316423,45.2527945 L41.4316423,45.2527945 Z" fill="#000000"></path>
    </g>
</svg>