<?xml version="1.0" encoding="UTF-8"?>
<svg width="100px" height="100px" viewBox="0 0 100 100" version="1.1"
     xmlns="http://www.w3.org/2000/svg">
    <title>message</title>
    <g id="message" stroke="none" stroke-width="1" fill="none" fill-rule="evenodd">
        <path
                d="M91.8597246,12 C93.6213425,12 95,13.3726306 95,15.1265475 L95,15.1265475 L95,70.7180877 C95,72.4720046 93.6213425,73.8446352 91.8597246,73.8446352 L91.8597246,73.8446352 L41.1557659,73.8446352 L24.3055077,86.5795971 C23.7693632,86.9608834 23.0800344,87.1896552 22.3907057,87.1896552 C21.9311532,87.1896552 21.4716007,87.1133979 21.0120482,86.8846261 C19.939759,86.3508253 19.2504303,85.2832238 19.2504303,84.0631076 L19.2504303,84.0631076 L19.2504303,73.768378 L9.14027539,73.768378 C7.45524957,73.768378 6,72.3957474 6,70.6418305 L6,70.6418305 L6,15.1265475 C6,13.3726306 7.37865749,12 9.14027539,12 L9.14027539,12 Z M88.6428571,18.2530951 L12.2805508,18.2530951 L12.2805508,67.5152829 L22.3907057,67.5152829 C24.1523236,67.5152829 25.5309811,68.8879135 25.5309811,70.6418305 L25.5309811,70.6418305 L25.5309811,77.7337553 L38.1686747,68.125341 C38.7048193,67.7440547 39.394148,67.5152829 40.0834768,67.5152829 L40.0834768,67.5152829 L88.6428571,67.5152829 L88.6428571,18.2530951 Z M73.0946644,47.3071099 C74.8562823,47.3071099 76.2349398,48.6797405 76.2349398,50.4336574 C76.2349398,52.1875743 74.8562823,53.5602049 73.0946644,53.5602049 L73.0946644,53.5602049 L27.9053356,53.5602049 C26.1437177,53.5602049 24.7650602,52.1875743 24.7650602,50.4336574 C24.7650602,48.6797405 26.1437177,47.3071099 27.9053356,47.3071099 L27.9053356,47.3071099 Z M73.0946644,32.208173 C74.8562823,32.208173 76.2349398,33.5808037 76.2349398,35.3347206 C76.2349398,37.0886375 74.8562823,38.4612681 73.0946644,38.4612681 L73.0946644,38.4612681 L27.9053356,38.4612681 C26.1437177,38.4612681 24.7650602,37.0886375 24.7650602,35.3347206 C24.7650602,33.5808037 26.1437177,32.208173 27.9053356,32.208173 L27.9053356,32.208173 Z"
                id="speech-bubble" fill="#000000"></path>
    </g>
</svg>
