<?xml version="1.0" encoding="UTF-8"?>
<svg width="100px" height="100px" viewBox="0 0 100 100" version="1.1"
     xmlns="http://www.w3.org/2000/svg">
    <title>more</title>
    <g id="more" stroke="none" stroke-width="1" fill="none" fill-rule="evenodd">
        <path
                d="M88.9806763,83.2479871 C92.2769726,83.2479871 94.8566828,85.8276973 95,89.1239936 C95,92.4202899 92.4202899,95 89.1239936,95 L89.1239936,95 L11.8760064,95 C8.57971014,95 6,92.4202899 6,89.1239936 C6,85.8276973 8.57971014,83.2479871 11.8760064,83.2479871 L11.8760064,83.2479871 Z M88.9806763,44.5523349 C92.2769726,44.5523349 94.8566828,47.1320451 95,50.4283414 C95,53.7246377 92.4202899,56.3043478 89.1239936,56.3043478 L89.1239936,56.3043478 L11.8760064,56.3043478 C8.57971014,56.3043478 6,53.7246377 6,50.4283414 C6,47.1320451 8.57971014,44.5523349 11.8760064,44.5523349 L11.8760064,44.5523349 Z M88.9806763,6 C92.2769726,6 94.8566828,8.57971014 95,11.8760064 C95,15.1723027 92.4202899,17.7520129 89.1239936,17.7520129 L89.1239936,17.7520129 L11.8760064,17.7520129 C8.57971014,17.7520129 6,15.1723027 6,11.8760064 C6,8.57971014 8.57971014,6 11.8760064,6 L11.8760064,6 Z"
                id="menu" fill="#000000"></path>
    </g>
</svg>
