<?xml version="1.0" encoding="UTF-8"?>
<svg width="86px" height="88px" viewBox="0 0 86 88" version="1.1"
     xmlns="http://www.w3.org/2000/svg">
    <title>pdf</title>
    <g id="pdf" stroke="none" stroke-width="1" fill="none" fill-rule="evenodd">
        <g id="vscode-icons:file-type-pdf2" fill-rule="nonzero">
            <g id="Icon">
                <polyline id="Icon-路径" fill="#909090"
                          points="68.3125 0.475 85.7 18.6 85.7 87.525 20.746875 87.525 20.746875 87.75 85.921875 87.75 85.921875 18.828125 68.3125 0.475"></polyline>
                <polyline id="Icon-路径" fill="#F4F4F4"
                          points="68.096875 0.25 20.525 0.25 20.525 87.525 85.7 87.525 85.7 18.603125 68.09375 0.25"></polyline>
                <polyline id="Icon-路径" fill="#7A7B7C"
                          points="20.046875 4.9375 0.078125 4.9375 0.078125 26.271875 62.890625 26.271875 62.890625 4.9375 20.046875 4.9375"></polyline>
                <polyline id="Icon-路径" fill="#DD2025"
                          points="63.225 25.909375 0.484375 25.909375 0.484375 4.559375 63.225 4.559375 63.225 25.909375"></polyline>
                <path d="M21.2875,8.16875 L17.203125,8.16875 L17.203125,23.16875 L20.415625,23.16875 L20.415625,18.109375 L21.125,18.15 C21.8142836,18.1381397 22.497091,18.0146645 23.146875,17.784375 C23.7165718,17.5884297 24.2406579,17.2790806 24.6875,16.875 C25.1421823,16.4900621 25.5006638,16.0042393 25.734375,15.45625 C26.0477961,14.5453056 26.1597485,13.5771838 26.0625,12.61875 C26.0429837,11.9340865 25.9229511,11.2560081 25.70625,10.60625 C25.3073884,9.65788901 24.5283437,8.92080158 23.559375,8.575 C23.1450281,8.42499521 22.7169227,8.31613713 22.28125,8.25 C21.9513308,8.19909637 21.6181828,8.17194325 21.284375,8.16875 M20.69375,15.3375 L20.415625,15.3375 L20.415625,10.7125 L21.01875,10.7125 C21.5579337,10.6736175 22.0856004,10.8816952 22.453125,11.278125 C22.8291204,11.781296 23.0299822,12.3937597 23.025,13.021875 C23.025,13.790625 23.025,14.4875 22.33125,14.978125 C21.8314588,15.253013 21.2625703,15.3767788 20.69375,15.334375"
                      id="Icon-形状" fill="#464648"></path>
                <path d="M32.165625,8.128125 C31.81875,8.128125 31.48125,8.153125 31.24375,8.1625 L30.5,8.18125 L28.0625,8.18125 L28.0625,23.18125 L30.93125,23.18125 C32.0275785,23.2113014 33.1191173,23.025485 34.14375,22.634375 C34.9684773,22.3072563 35.6987778,21.7799364 36.26875,21.1 C36.8230092,20.4139229 37.220812,19.6151179 37.434375,18.759375 C37.6798842,17.7902147 37.7996181,16.7934828 37.790625,15.79375 C37.8512422,14.6129923 37.7598688,13.4293398 37.51875,12.271875 C37.2899447,11.4198838 36.8614482,10.6346639 36.26875,9.98125 C35.8037282,9.45363317 35.2344847,9.02803053 34.596875,8.73125 C34.049313,8.47786497 33.4733192,8.29111287 32.88125,8.175 C32.6458062,8.13610677 32.4073582,8.11832776 32.16875,8.121875 M31.6,20.425 L31.2875,20.425 L31.2875,10.85 L31.328125,10.85 C31.9723705,10.7758735 32.6242176,10.8921196 33.203125,11.184375 C33.6270715,11.5228961 33.9725183,11.9493737 34.215625,12.434375 C34.4779861,12.944797 34.6292237,13.5050152 34.659375,14.078125 C34.6875,14.765625 34.659375,15.328125 34.659375,15.79375 C34.6720989,16.3301156 34.6375907,16.8665603 34.55625,17.396875 C34.4599323,17.9413409 34.28188,18.4681229 34.028125,18.959375 C33.7409093,19.416111 33.3528537,19.8009595 32.89375,20.084375 C32.5081959,20.3337439 32.051625,20.4500817 31.59375,20.415625"
                      id="Icon-形状" fill="#464648"></path>
                <polyline id="Icon-路径" fill="#464648"
                          points="47.46875 8.18125 39.875 8.18125 39.875 23.18125 43.0875 23.18125 43.0875 17.23125 47.15 17.23125 47.15 14.44375 43.0875 14.44375 43.0875 10.96875 47.4625 10.96875 47.4625 8.18125"></polyline>
                <path d="M61.065625,57.296875 C61.065625,57.296875 71.028125,55.490625 71.028125,58.89375 C71.028125,62.296875 64.85625,60.9125 61.065625,57.296875 Z M53.7,57.55625 C52.1171628,57.9059936 50.5746244,58.4180787 49.096875,59.084375 L50.346875,56.271875 C51.596875,53.459375 52.89375,49.625 52.89375,49.625 C54.3853441,52.1354172 56.1208222,54.4926529 58.075,56.6625 C56.6013018,56.882247 55.1407727,57.1826987 53.7,57.5625 L53.7,57.55625 Z M49.75625,37.24375 C49.75625,34.278125 50.715625,33.46875 51.4625,33.46875 C52.209375,33.46875 53.05,33.828125 53.078125,36.403125 C52.8347953,38.9923753 52.2926475,41.5447692 51.4625,44.009375 C50.3253705,41.9401116 49.7368985,39.614195 49.753125,37.253125 L49.75625,37.24375 Z M35.228125,70.10625 C32.171875,68.278125 41.6375,62.65 43.353125,62.46875 C43.34375,62.471875 38.428125,72.01875 35.228125,70.10625 L35.228125,70.10625 Z M73.9375,59.296875 C73.90625,58.984375 73.625,55.525 67.46875,55.671875 C64.9027278,55.6305174 62.3379426,55.8114012 59.803125,56.2125 C57.3476966,53.7387499 55.2332166,50.9485191 53.515625,47.915625 C54.5977265,44.7888248 55.2526029,41.5302101 55.4625,38.228125 C55.371875,34.478125 54.475,32.328125 51.6,32.359039 C48.725,32.390625 48.30625,34.90625 48.684375,38.65 C49.0547756,41.1657766 49.7534385,43.6221285 50.7625,45.95625 C50.7625,45.95625 49.434375,50.090625 47.678125,54.203125 C45.921875,58.315625 44.721875,60.471875 44.721875,60.471875 C41.6678969,61.4660607 38.7929223,62.9431118 36.20625,64.846875 C33.63125,67.24375 32.584375,69.084375 33.940625,70.925 C35.109375,72.5125 39.2,72.871875 42.85625,68.08125 C44.7989295,65.6069117 46.5737334,63.005258 48.16875,60.29375 C48.16875,60.29375 53.74375,58.765625 55.478125,58.346875 C57.2125,57.928125 59.309375,57.596875 59.309375,57.596875 C59.309375,57.596875 64.4,62.71875 69.309375,62.5375 C74.21875,62.35625 73.98125,59.603125 73.95,59.303125"
                      id="Icon-形状" fill="#DD2025"></path>
                <polygon id="Icon-路径" fill="#909090"
                         points="67.85625 0.490625 67.85625 18.84375 85.459375 18.84375"></polygon>
                <polygon id="Icon-路径" fill="#F4F4F4"
                         points="68.096875 0.25 68.096875 18.603125 85.7 18.603125"></polygon>
                <path d="M21.046875,7.928125 L16.9625,7.928125 L16.9625,22.928125 L20.1875,22.928125 L20.1875,17.871875 L20.9,17.9125 C21.5892836,17.9006397 22.272091,17.7771645 22.921875,17.546875 C23.4915354,17.3508508 24.0156065,17.0415107 24.4625,16.6375 C24.913773,16.251529 25.2689834,15.7657895 25.5,15.21875 C25.8134211,14.3078056 25.9253735,13.3396838 25.828125,12.38125 C25.8086087,11.6965865 25.6885761,11.0185081 25.471875,10.36875 C25.0730134,9.42038901 24.2939687,8.68330158 23.325,8.3375 C22.9087441,8.18603453 22.4785237,8.0761242 22.040625,8.009375 C21.7107058,7.95847137 21.3775578,7.93131825 21.04375,7.928125 M20.453125,15.096875 L20.175,15.096875 L20.175,10.471875 L20.78125,10.471875 C21.3204337,10.4329925 21.8481004,10.6410702 22.215625,11.0375 C22.5916204,11.540671 22.7924822,12.1531347 22.7875,12.78125 C22.7875,13.55 22.7875,14.246875 22.09375,14.7375 C21.5939588,15.012388 21.0250703,15.1361538 20.45625,15.09375"
                      id="Icon-形状" fill="#FFFFFF"></path>
                <path d="M31.925,7.8875 C31.578125,7.8875 31.240625,7.9125 31.003125,7.921875 L30.26875,7.940625 L27.83125,7.940625 L27.83125,22.940625 L30.7,22.940625 C31.7963285,22.9706764 32.8878673,22.78486 33.9125,22.39375 C34.7372273,22.0666313 35.4675278,21.5393114 36.0375,20.859375 C36.5917592,20.1732979 36.989562,19.3744929 37.203125,18.51875 C37.4486342,17.5495897 37.5683681,16.5528578 37.559375,15.553125 C37.6199922,14.3723673 37.5286188,13.1887148 37.2875,12.03125 C37.0586947,11.1792588 36.6301982,10.3940389 36.0375,9.740625 C35.5724782,9.21300817 35.0032347,8.78740553 34.365625,8.490625 C33.818063,8.23723997 33.2420692,8.05048787 32.65,7.934375 C32.4145562,7.89548177 32.1761082,7.87770276 31.9375,7.88125 M31.36875,20.184375 L31.05625,20.184375 L31.05625,10.609375 L31.096875,10.609375 C31.7411205,10.5352485 32.3929676,10.6514946 32.971875,10.94375 C33.3958215,11.2822711 33.7412683,11.7087487 33.984375,12.19375 C34.2467361,12.704172 34.3979737,13.2643902 34.428125,13.8375 C34.45625,14.525 34.428125,15.0875 34.428125,15.553125 C34.4408489,16.0894906 34.4063407,16.6259353 34.325,17.15625 C34.2286823,17.7007159 34.05063,18.2274979 33.796875,18.71875 C33.5096593,19.175486 33.1216037,19.5603345 32.6625,19.84375 C32.2769459,20.0931189 31.820375,20.2094567 31.3625,20.175"
                      id="Icon-形状" fill="#FFFFFF"></path>
                <polyline id="Icon-路径" fill="#FFFFFF"
                          points="47.228125 7.940625 39.634375 7.940625 39.634375 22.940625 42.846875 22.940625 42.846875 16.990625 46.909375 16.990625 46.909375 14.203125 42.846875 14.203125 42.846875 10.728125 47.221875 10.728125 47.221875 7.940625"></polyline>
            </g>
        </g>
    </g>
</svg>
