<?xml version="1.0" encoding="UTF-8"?>
<svg width="100px" height="100px" viewBox="0 0 100 100" version="1.1" xmlns="http://www.w3.org/2000/svg">
   <title>people</title>
   <g id="people" stroke="none" stroke-width="1" fill="none" fill-rule="evenodd">
      <path
         d="M50.3538588,55.4909836 C63.5065681,55.4909836 74.1748768,44.8401639 74.1748768,31.7090164 C74.1748768,18.5778689 63.5065681,8 50.3538588,8 C37.2011494,8 26.5328407,18.6508197 26.5328407,31.7090164 C26.5328407,44.7672131 37.2011494,55.4909836 50.3538588,55.4909836 L50.3538588,55.4909836 Z M65.1141215,59.6491803 C81.6280788,59.6491803 95,73.0721311 95,89.4860656 C95,91.2368852 93.6116585,92.6229508 91.8579639,92.6229508 L91.8579639,92.6229508 L9.14203612,92.6229508 C7.38834154,92.6229508 6,91.2368852 6,89.4860656 C6,72.9991803 19.4449918,59.6491803 35.8858785,59.6491803 L35.8858785,59.6491803 Z M65.1141215,65.9229508 L35.8858785,65.9229508 C23.9022989,65.9229508 14.0377668,74.8959016 12.5032841,86.3491803 L12.5032841,86.3491803 L88.4967159,86.3491803 C86.9622332,74.8229508 77.0977011,65.9229508 65.1141215,65.9229508 L65.1141215,65.9229508 Z M50.3538588,14.2008197 C59.999179,14.2008197 67.8908046,22.0795082 67.8908046,31.7090164 C67.8908046,41.3385246 59.999179,49.2172131 50.3538588,49.2172131 C40.7085386,49.2172131 32.816913,41.3385246 32.816913,31.7090164 C32.816913,22.0795082 40.7085386,14.2008197 50.3538588,14.2008197 Z"
         id="profile" fill="#000000"></path>
   </g>
</svg>