<?xml version="1.0" encoding="UTF-8"?>
<svg width="100px" height="100px" viewBox="0 0 100 100" version="1.1"
     xmlns="http://www.w3.org/2000/svg">
    <title>phoneslash</title>
    <g id="phoneslash" stroke="none" stroke-width="1" fill="none" fill-rule="evenodd">
        <g id="carbon-phone-off" fill="#000000" fill-rule="nonzero">
            <g id="Icon">
                <path d="M28.71875,58 C21.0369328,46.3598492 16.5238212,32.9174547 15.625,19 L15.625,18.75 C15.625,17.0241102 17.0241102,15.625 18.75,15.625 L35.25,15.625 L39.9375,27.40625 L31.0625,36.374997 L31.25,37.874997 C32.0161488,42.4472604 33.5592632,46.8546487 35.8125,50.90625 L40.375,46.34375 C39.1292849,43.8572172 38.2453476,41.2054053 37.75,38.46875 L44.40625,31.75 C46.1750746,29.9784346 46.7161347,27.322321 45.78125,25 L41.03125,13.3125 C40.0835794,10.9329935 37.7800241,9.37252053 35.21875,9.37499705 L18,9.37499705 C15.5163998,9.56636846 13.2110652,10.7382739 11.5928676,12.6320343 C9.97466988,14.5257946 9.17666441,16.9856965 9.375,19.46875 C10.4771974,34.8826482 15.6418624,49.7297123 24.34375,62.5 L28.71875,58 Z"
                      id="Icon-路径"></path>
                <path d="M86.78125,58.9375 L75,54.21875 C72.6873113,53.2460276 70.0171085,53.7505359 68.21875,55.5 L61.4375,62.21875 C56.6143021,61.3854009 52.0849492,59.3305164 48.28125,56.25 L93.75,10.65625 L89.34375,6.25 L6.25,89.34375 L10.65625,93.75 L32.53125,71.875 C43.09375,81.8125 58.40625,89.4375 80.625,90.625 L81.25,90.625 C86.4276695,90.625 90.625,86.4276695 90.625,81.25 L90.625,64.75 C90.6429536,62.2117252 89.123951,59.9146968 86.78125,58.9375 Z M84.375,81.25 L84.375,81.4375 C84.3267372,82.2668478 83.950233,83.0428457 83.3286754,83.5940382 C82.7071179,84.1452308 81.8916687,84.4262482 81.0625,84.375 C60.71875,83.21875 46.6875,76.4375 36.96875,67.4375 L43.75,60.75 C48.9205254,65.2207049 55.3297386,68.0111107 62.125,68.75 L63.625,68.9375 L72.59375,60.03125 L84.375,64.75 L84.375,81.25 Z"
                      id="Icon-形状"></path>
                <rect id="Icon-矩形" fill-opacity="0" x="0" y="0" width="100" height="100"></rect>
            </g>
        </g>
    </g>
</svg>
