<?xml version="1.0" encoding="UTF-8"?>
<svg width="100px" height="100px" viewBox="0 0 100 100" version="1.1"
     xmlns="http://www.w3.org/2000/svg">
    <title>phone</title>
    <g id="phone" stroke="none" stroke-width="1" fill="none" fill-rule="evenodd">
        <g id="carbon-phone" fill="#000000" fill-rule="nonzero">
            <g id="Icon">
                <path d="M81.25,90.625 L80.71875,90.625 C19.3125,87.09375 10.59375,35.28125 9.375,19.46875 C9.17666441,16.9856965 9.97466988,14.5257946 11.5928676,12.6320343 C13.2110652,10.7382739 15.5163998,9.56636846 18,9.37499705 L35.21875,9.37499705 C37.7800241,9.37252053 40.0835794,10.9329935 41.03125,13.3125 L45.78125,25 C46.7161347,27.322321 46.1750746,29.9784346 44.40625,31.75 L37.75,38.46875 C39.8797724,50.5717139 49.3401902,60.0570932 61.4375,62.21875 L68.21875,55.5 C70.0171085,53.7505359 72.6873113,53.2460276 75,54.21875 L86.78125,58.9375 C89.123951,59.9146968 90.6429536,62.2117252 90.6251574,64.75 L90.6251574,81.25 C90.6251574,86.4276695 86.4276695,90.625 81.25,90.625 Z M18.75,15.625 C17.0241102,15.625 15.625,17.0241102 15.625,18.75 L15.625,19 C17.0625,37.5 26.28125,81.25 81.0625,84.375 C81.8916687,84.4262482 82.7071179,84.1452308 83.3286754,83.5940382 C83.950233,83.0428457 84.3267372,82.2668478 84.375,81.4375 L84.375,64.75 L72.59375,60.03125 L63.625,68.9375 L62.125,68.75 C34.9375,65.34375 31.25,38.15625 31.25,37.875 L31.0625,36.375 L39.9375,27.40625 L35.25,15.625 L18.75,15.625 Z" id="Icon-形状"></path>
                <rect id="Icon-矩形" fill-opacity="0" x="0" y="0" width="100" height="100"></rect>
            </g>
        </g>
    </g>
</svg>