<?xml version="1.0" encoding="UTF-8"?>
<svg width="67px" height="100px" viewBox="0 0 67 100" version="1.1"
     xmlns="http://www.w3.org/2000/svg">
    <title>play</title>
    <g id="play" stroke="none" stroke-width="1" fill="none" fill-rule="evenodd">
        <g id="ic-sharp-tap-and-play" transform="translate(47.000000, 50.000000) rotate(45.000000) translate(-47.000000, -50.000000) translate(13.000000, 16.000000)" fill="#000000" fill-rule="nonzero">
            <g id="Icon" transform="translate(0.931770, 0.482443)">
                <path d="M0,24.3636364 L0,36.5454545 C16.8109091,36.5454545 30.4545455,50.1890909 30.4545455,67 L42.6363636,67 C42.6363636,43.4281818 23.5718182,24.3636364 0,24.3636364 Z M0,48.7272727 L0,67 L18.2727273,67 C18.2727273,56.8890909 10.1109091,48.7272727 0,48.7272727 Z M0,0 L0,12.1818182 C30.2752458,12.1818182 54.8181818,36.7247542 54.8181818,67 L67,67 C67,29.9672727 37.0327273,0 0,0 L0,0 Z" id="Icon-形状"></path>
            </g>
        </g>
    </g>
</svg>