<?xml version="1.0" encoding="UTF-8"?>
<svg width="88px" height="86px" viewBox="0 0 88 86" version="1.1"
     xmlns="http://www.w3.org/2000/svg">
    <title>powerpoint</title>
    <g id="powerpoint" stroke="none" stroke-width="1" fill="none" fill-rule="evenodd">
        <g id="vscode-icons:file-type-powerpoint2" fill-rule="nonzero">
            <g id="Icon">
                <path d="M51.925,0.253125 L51.925,9.2 C62.55,9.259375 74.915625,9.090625 85.53125,9.25 C87.5375,9.25 87.625,11.025 87.65,12.575 C87.81875,31.14375 87.609375,50.246875 87.75,68.825 C87.7125,69.55625 87.73125,72.2625 87.709375,73.03125 C87.640625,75.603125 86.353125,75.715625 83.78125,75.79375 C83.36875,75.79375 82.15625,75.8125 81.75625,75.83125 C71.815625,75.78125 61.875,75.803125 51.925,75.803125 L51.925,85.746875 L0.25,77.79375 L0.25,8.228125 L51.925,0.25625" id="Icon-路径" fill="#D33922"></path>
                <path d="M51.925,12.18125 L84.7375,12.18125 L84.7375,72.80625 L51.925,72.80625 L51.925,64.875 L75.78125,64.875 L75.78125,60.890625 L51.925,60.890625 L51.925,55.921875 L75.78125,55.921875 L75.78125,51.946875 L51.934375,51.946875 C51.934375,49.996875 51.934375,48.05 51.915625,46.103125 C55.868351,47.5291403 60.2531601,47.0986944 63.853125,44.93125 C67.5293967,42.5155262 69.8102003,38.4708544 69.975,34.075 C65.6,34.04375 61.246875,34.05625 56.89375,34.05625 C56.89375,29.73125 56.94375,25.409375 56.803125,21.09375 C55.171875,21.40625 53.54375,21.75 51.921875,22.096875 L51.921875,12.184375" id="Icon-路径" fill="#FFFFFF"></path>
                <path d="M58.89375,19.0125 C65.9057131,19.4518725 71.5037329,25.0244833 71.975,32.034375 C67.6,32.084375 63.246875,32.065625 58.884375,32.065625 L58.884375,19.0125" id="Icon-路径" fill="#D33922"></path>
                <path d="M16.1875,26.51875 C21.584375,26.778125 28.125,24.38125 32.6,28.428125 C36.884375,33.628125 35.75,43.190625 29.4,46.3 C27.0911348,47.2142889 24.5881469,47.5282375 22.125,47.2125 C22.125,51.1 22.10625,54.9875 22.125,58.871875 C20.15625,58.703125 18.178125,58.534375 16.209375,58.375 C16.11875,47.75 16.1,37.125 16.209375,26.5" id="Icon-路径" fill="#FFFFFF"></path>
                <path d="M22.103125,31.89375 C24.0625,31.803125 26.478125,31.446875 27.809375,33.284375 C28.8888953,35.3137142 28.9364837,37.7360777 27.9375,39.80625 C26.803125,41.853125 24.240625,41.65625 22.2625,41.89375 C22.053125,38.5625 22.075,35.234375 22.103125,31.89375" id="Icon-路径" fill="#D33922"></path>
            </g>
        </g>
    </g>
</svg>