<?xml version="1.0" encoding="UTF-8"?>
<svg width="100px" height="100px" viewBox="0 0 100 100" version="1.1"
     xmlns="http://www.w3.org/2000/svg">
    <title>qq</title>
    <g id="qq" stroke="none" stroke-width="1" fill="none" fill-rule="evenodd">
        <g id="cib-qq" transform="translate(6.000000, 6.000000)" fill="#000000" fill-rule="nonzero">
            <g id="Icon">
                <path d="M80.9621875,73.0856875 C78.9596875,73.3276563 73.1635625,63.9186875 73.1635625,63.9186875 C73.1635625,69.3671563 70.3572812,76.4760313 64.2885938,81.613 C67.2144688,82.5169063 73.8227188,84.9449375 72.2513125,87.5954688 C70.9802813,89.7425938 50.4351875,88.966625 44.5027813,88.2963438 C38.570375,88.9638438 18.0252813,89.7398125 16.75425,87.5954688 C15.1828438,84.9449375 21.7799688,82.5169063 24.7114063,81.613 C18.6427188,76.4788125 15.8364375,69.3671563 15.8364375,63.9186875 C15.8364375,63.9186875 10.0430938,73.3304375 8.0378125,73.0856875 C7.10609375,72.9716562 5.8795625,67.9320312 9.6620625,55.7557187 C11.4448438,50.0152187 13.4862813,45.2425937 16.6402188,37.368875 C16.109,17.0490625 24.5055938,0.00278125 44.4972188,0.00278125 C64.269125,0.0055625 72.857625,16.7125313 72.357,37.368875 C75.505375,45.2286875 77.5551563,50.0319062 79.3351562,55.7557187 C83.1204375,67.9348125 81.8939062,72.9744375 80.9594063,73.0856875 L80.9621875,73.0856875 Z" id="Icon-路径"></path>
                <rect id="Icon-矩形" fill-opacity="0" x="0" y="0" width="89" height="89"></rect>
            </g>
        </g>
    </g>
</svg>