<?xml version="1.0" encoding="UTF-8"?>
<svg width="100px" height="100px" viewBox="0 0 100 100" version="1.1"
     xmlns="http://www.w3.org/2000/svg">
    <title>search</title>
    <g id="search" stroke="none" stroke-width="1" fill="none" fill-rule="evenodd">
        <path d="M40.6324418,75.2648835 C49.0793788,75.2648835 56.7584124,72.2700604 62.7480587,67.2018982 L89.6246764,94.078516 C90.2389991,94.6928387 91.0069025,95 91.8515962,95 C92.6962899,95 93.4641933,94.6928387 94.078516,94.078516 C95.3071613,92.8498706 95.3071613,90.8533218 94.078516,89.6246764 L67.2018982,62.7480587 C72.1932701,56.7584124 75.2648835,49.0025884 75.2648835,40.6324418 C75.2648835,21.511648 59.7532355,6 40.6324418,6 C21.5884383,6 6,21.5884383 6,40.6324418 C6,59.7532355 21.5884383,75.2648835 40.6324418,75.2648835 L40.6324418,75.2648835 Z M40.6324418,12.2968076 C56.2976704,12.2968076 68.9680759,25.0440035 68.9680759,40.6324418 C68.9680759,56.2976704 56.2976704,68.9680759 40.6324418,68.9680759 C24.9672131,68.9680759 12.2968076,56.2208801 12.2968076,40.6324418 C12.2968076,25.0440035 25.0440035,12.2968076 40.6324418,12.2968076 L40.6324418,12.2968076 Z" fill="#000000"></path>
    </g>
</svg>