<?xml version="1.0" encoding="UTF-8"?>
<svg width="100px" height="100px" viewBox="0 0 100 100" version="1.1"
     xmlns="http://www.w3.org/2000/svg">
    <title>smile</title>
    <g id="smile" stroke="none" stroke-width="1" fill="none" fill-rule="evenodd">
        <g id="codicon-smiley" fill="#000000" fill-rule="nonzero">
            <g id="Icon">
                <g id="Icon-编组" transform="translate(6.250000, 0.000000)">
                    <path d="M19.44375,13.625 C32.4387582,4.78694592 49.175701,3.59784542 63.2896987,10.5099007 C77.4036964,17.4219559 86.7260138,31.3730711 87.7114735,47.0577868 C88.6969333,62.7425026 81.1941112,77.7507295 68.05625,86.375 C47.9668922,99.8006966 20.7975725,94.3987322 7.37187554,74.3093746 C-6.05382141,54.2200171 -0.651857363,27.0506972 19.4375,13.625 L19.44375,13.625 Z M22.91875,81.18125 C34.058528,88.7081872 48.3752982,89.6957538 60.4430619,83.7696661 C72.5108256,77.8435783 80.4827995,65.9107317 81.3376374,52.4936273 C82.1924752,39.076523 75.7993574,26.2284398 64.58125,18.81875 C47.3640349,7.4465801 24.1941407,12.1203629 12.7318394,29.2777051 C1.26953799,46.4350472 5.82175254,69.6291324 22.91875,81.18125 Z M34.375,43.75 C34.375,47.2017797 31.5767797,50 28.125,50 C24.6732203,50 21.875,47.2017797 21.875,43.75 C21.875,40.2982203 24.6732203,37.5 28.125,37.5 C31.5767797,37.5 34.375,40.2982203 34.375,43.75 Z M65.625,43.75 C65.625,47.2017797 62.8267797,50 59.375,50 C55.9232203,50 53.125,47.2017797 53.125,43.75 C53.125,40.2982203 55.9232203,37.5 59.375,37.5 C62.8267797,37.5 65.625,40.2982203 65.625,43.75 Z M43.75,68.75 C36.8298761,68.7669428 30.4630144,64.9708516 27.1875,58.875 L21.75,61.875 C26.2119333,70.1320518 34.9226708,75.1943794 44.3058095,74.9835224 C53.6889482,74.7726653 62.163487,69.3241517 66.25,60.875 L60.625,58.1875 C57.4879845,64.6504 50.9340056,68.7527054 43.75,68.75 Z"
                          id="Icon-形状"></path>
                </g>
                <rect id="Icon-矩形" fill-opacity="0" x="0" y="0" width="100" height="100"></rect>
            </g>
        </g>
    </g>
</svg>
