<?xml version="1.0" encoding="UTF-8"?>
<svg width="100px" height="100px" viewBox="0 0 100 100" version="1.1"
     xmlns="http://www.w3.org/2000/svg">
   <title>stikynote</title>
   <g id="stikynote" stroke="none" stroke-width="1" fill="none" fill-rule="evenodd">
      <g id="whh-stickynotealt" transform="translate(6.000000, 4.000000)" fill="#000000"
         fill-rule="nonzero">
         <g id="Icon">
            <path
               d="M88.9130859,50.4970703 C88.9130859,53.2783203 87.9280599,55.6539714 85.9580078,57.6240234 L57.1894531,86.3925781 C55.219401,88.3626302 52.84375,89.3476562 50.0625,89.3476562 L50.0625,89.4345703 L0,89.4345703 L0,0.434570312 L89,0.434570312 L89,50.4970703 L88.9130859,50.4970703 Z M53.9736328,81.0908203 L80.65625,54.4082031 C81.6992188,53.3652344 82.452474,52.0615234 82.9160156,50.4970703 L50.0625,50.4970703 L50.0625,83.3505859 C51.6269531,82.8870443 52.9306641,82.1337891 53.9736328,81.0908203 Z M83.4375,5.99707031 L5.5625,5.99707031 L5.5625,83.8720703 L44.5,83.8720703 L44.5,44.9345703 L83.4375,44.9345703 L83.4375,5.99707031 Z"
               id="Icon-形状"></path>
            <rect id="Icon-矩形" fill-opacity="0" x="0" y="0" width="89" height="89"></rect>
         </g>
      </g>
   </g>
</svg>