<?xml version="1.0" encoding="UTF-8"?>
<svg width="100px" height="100px" viewBox="0 0 100 100" version="1.1" xmlns="http://www.w3.org/2000/svg">
   <title>stikynote</title>
   <g id="stikynote" stroke="none" stroke-width="1" fill="none" fill-rule="evenodd">
      <path
         d="M33.6142126,6 C31.9863537,6 30.7123771,7.27142857 30.7123771,8.89603175 L30.7123771,12.9222222 L17.9018354,12.9222222 C16.2739765,12.9222222 15,14.1936508 15,15.818254 L15,92.1039683 C15,93.7285714 16.2739765,95 17.9018354,95 L82.7330852,95 C84.3609441,95 85.6349206,93.7285714 85.6349206,92.1039683 L85.6349206,15.818254 C85.6349206,14.1936508 84.3609441,12.9222222 82.7330852,12.9222222 L71.2672965,12.9222222 L71.2672965,8.89603175 C71.2672965,7.27142857 69.99332,6 68.3654611,6 L33.6142126,6 Z M36.516048,11.7920635 L65.4636257,11.7920635 L65.4636257,15.818254 L65.4636257,20.9039683 L36.516048,20.9039683 L36.516048,15.818254 L36.516048,11.7920635 Z M30.7123771,18.7142857 L30.7123771,23.8 C30.7123771,25.4246032 31.9863537,26.6960317 33.6142126,26.6960317 L68.3654611,26.6960317 C69.99332,26.6960317 71.2672965,25.4246032 71.2672965,23.8 L71.2672965,18.7142857 L79.8312498,18.7142857 L79.8312498,89.2079365 L20.8036708,89.2079365 L20.8036708,18.7142857 L30.7123771,18.7142857 Z M51.0252251,70.1365079 L30.0753889,70.1365079 C28.44753,70.1365079 27.1735535,71.4079365 27.1735535,73.0325397 C27.1735535,74.6571429 28.44753,75.9285714 30.0753889,75.9285714 L50.9544486,75.9285714 C52.5823075,75.9285714 53.856284,74.6571429 53.856284,73.0325397 C53.856284,71.4079365 52.5823075,70.1365079 51.0252251,70.1365079 Z M71.9042848,56.1507937 L30.0753889,56.1507937 C28.44753,56.1507937 27.1735535,57.4222222 27.1735535,59.0468254 C27.1735535,60.6714286 28.44753,61.9428571 30.0753889,61.9428571 L71.9042848,61.9428571 C73.5321437,61.9428571 74.8061202,60.6714286 74.8061202,59.0468254 C74.8061202,57.4222222 73.5321437,56.1507937 71.9042848,56.1507937 Z M71.9042848,42.0944444 L30.0753889,42.0944444 C28.44753,42.0944444 27.1735535,43.4365079 27.1735535,44.9904762 C27.1735535,46.6150794 28.44753,47.8865079 30.0753889,47.8865079 L71.9042848,47.8865079 C73.5321437,47.8865079 74.8061202,46.6150794 74.8061202,44.9904762 C74.8061202,43.365873 73.5321437,42.0944444 71.9042848,42.0944444 Z"
         id="padnote" fill="#000000"></path>
   </g>
</svg>