<?xml version="1.0" encoding="UTF-8"?>
<svg width="100px" height="56px" viewBox="0 0 100 56" version="1.1"
     xmlns="http://www.w3.org/2000/svg">
    <title>video</title>
    <g id="video" stroke="none" stroke-width="1" fill="none" fill-rule="evenodd">
        <g id="carbon-video-filled" fill="#000000" fill-rule="nonzero">
            <g id="Icon" transform="translate(0.600000, 0.000000)">
                <path d="M67.1785714,56 L7.07142857,56 C3.16598641,56 0,53.4927946 0,50.4 L0,5.6 C0,2.5072054 3.16598641,0 7.07142857,0 L67.1785714,0 C71.0840136,0 74.25,2.5072054 74.25,5.6 L74.25,16.968 L93.4135714,6.132 C94.4893001,5.52544467 95.9022018,5.44417109 97.0773243,5.92125189 C98.2524468,6.3983327 98.9939137,7.35424521 99,8.4 L99,47.6 C98.9939137,48.6457548 98.2524468,49.6016673 97.0773243,50.0787481 C95.9022018,50.5558289 94.4893001,50.4745553 93.4135714,49.868 L74.25,39.032 L74.25,50.4 C74.25,53.4927946 71.0840136,56 67.1785714,56 Z" id="Icon-路径"></path>
            </g>
        </g>
    </g>
</svg>