<?xml version="1.0" encoding="UTF-8"?>
<svg width="100px" height="100px" viewBox="0 0 100 100" version="1.1"
     xmlns="http://www.w3.org/2000/svg">
    <title>voice</title>
    <g id="voice" stroke="none" stroke-width="1" fill="none" fill-rule="evenodd">
        <path d="M49.6896552,66.6365202 C61.5171545,66.6365202 71.1028403,57.0542636 71.1028403,45.3255814 L71.1028403,43.255814 L71.1028403,27.2342808 C71.1028403,15.5055986 61.5171545,6 49.6896552,6 C37.8621558,6 28.2764701,15.5055986 28.2764701,27.2342808 L28.2764701,43.255814 L28.2764701,45.3255814 C28.2764701,57.0542636 37.8621558,66.6365202 49.6896552,66.6365202 L49.6896552,66.6365202 Z M77.2098497,42.1826012 C78.9878398,42.1826012 80.3793103,43.5624462 80.3793103,45.3255814 C80.3793103,61.0404823 68.3198992,73.9956934 52.8591158,75.6055125 L52.8591158,75.6055125 L52.8591158,88.7140396 L69.2475463,88.7140396 C71.0255364,88.7140396 72.4170069,90.0938846 72.4170069,91.8570198 C72.4170069,93.620155 71.0255364,95 69.2475463,95 L69.2475463,95 L28.8175975,95 C27.0396074,95 25.6481369,93.620155 25.6481369,91.8570198 C25.6481369,90.0938846 27.0396074,88.7140396 28.8175975,88.7140396 L28.8175975,88.7140396 L46.5201946,88.7140396 L46.5201946,75.6055125 C31.0594111,73.9956934 19,61.0404823 19,45.3255814 C19,43.5624462 20.3914705,42.1826012 22.1694606,42.1826012 C23.9474507,42.1826012 25.3389212,43.5624462 25.3389212,45.3255814 C25.3389212,58.6640827 36.2387736,69.4728682 49.6896552,69.4728682 C63.1405368,69.4728682 74.0403891,58.6640827 74.0403891,45.3255814 C74.0403891,43.5624462 75.4318596,42.1826012 77.2098497,42.1826012 Z M49.7669591,12.2093023 C58.1157822,12.2093023 64.9185269,18.955211 64.9185269,27.2342808 L64.9185269,43.255814 C64.9185269,51.5348837 58.1157822,58.2807924 49.7669591,58.2807924 C41.418136,58.2807924 34.6153913,51.5348837 34.6153913,43.255814 L34.6153913,27.2342808 C34.6153913,18.955211 41.418136,12.2093023 49.7669591,12.2093023 Z" id="voice-recorder" fill="#000000"></path>
    </g>
</svg>