<?xml version="1.0" encoding="UTF-8"?>
<svg width="100px" height="100px" viewBox="0 0 100 100" version="1.1"
     xmlns="http://www.w3.org/2000/svg">
    <title>volumemute</title>
    <g id="volumemute" stroke="none" stroke-width="1" fill="none" fill-rule="evenodd">
        <g id="clarity-volume-mute-line" fill="#000000" fill-rule="nonzero">
            <g id="Icon">
                <path d="M10.0277778,17.8055556 L25.5277778,33.3333333 L11.1111111,33.3333333 C8.0428625,33.3333333 5.55555556,35.8206403 5.55555556,38.8888889 L5.55555556,61.1111111 C5.55555556,64.1793597 8.0428625,66.6666667 11.1111111,66.6666667 L25.3888889,66.6666667 L45.9722222,87.4166667 C47.0636662,88.4266959 48.5144796,88.9569932 50,88.8888889 C50.7241337,88.8889127 51.4412875,88.7473692 52.1111111,88.4722222 C54.1950236,87.6161159 55.555586,85.5862446 55.5555556,83.3333333 L55.5555556,63.25 L71.9166667,79.6111111 C71.2222222,80.0277778 70.5555556,80.4166667 69.8333333,80.7777778 C68.9451314,81.2243598 68.3626476,82.1108686 68.305298,83.1033651 C68.2479483,84.0958615 68.7244456,85.0435617 69.555298,85.5894762 C70.3861503,86.1353907 71.4451314,86.196582 72.3333333,85.75 C73.5818853,85.1196523 74.7965166,84.4242526 75.9722222,83.6666667 L82.3055556,90 L86.1111111,86.1111111 L13.8888889,13.8888889 L10.0277778,17.8055556 Z M50,83.3333333 L28.5277778,61.75 C27.9774511,61.2905051 27.2707772,61.0615825 26.5555556,61.1111111 L11.1111111,61.1111111 L11.1111111,38.8888889 L26.7777778,38.8888889 C27.5201275,38.8858072 28.2303571,38.5857101 28.75,38.0555556 L29.4722222,37.3333333 L50,57.8055556 L50,83.3333333 Z" id="Icon-形状"></path>
                <path d="M69.1388889,18.5833333 C78.9544246,23.1678497 86.0465226,32.0966515 88.2906982,42.6950574 C90.5348738,53.2934633 87.6704765,64.3305183 80.5555556,72.5 L84.5,76.4444444 C92.9004257,66.9963255 96.3472936,54.1368684 93.7985035,41.7539054 C91.2497134,29.3709424 83.0044615,18.9180789 71.5555556,13.5555556 C70.6580383,13.0905001 69.5787353,13.1497177 68.7374842,13.7101733 C67.8962332,14.270629 67.4258479,15.2438398 67.5093035,16.251237 C67.592759,17.2586342 68.2168796,18.1411732 69.1388889,18.5555556 L69.1388889,18.5833333 Z" id="Icon-路径"></path>
                <path d="M63.0277778,35.0555556 C68.3470787,38.1593079 71.6317706,43.841508 71.6666667,50 C71.6666748,53.7178513 70.4577455,57.3348899 68.2222222,60.3055556 L72.2222222,64.25 C75.4707537,60.2122839 77.2356707,55.1822704 77.2222985,50 C77.185386,41.8659448 72.854919,34.3562812 65.8333333,30.25 C64.9722526,29.7026129 63.8803834,29.6713674 62.9894088,30.168617 C62.0984343,30.6658665 61.5517908,31.6115597 61.5656003,32.6318058 C61.5794097,33.6520518 62.1514489,34.5826032 63.0555556,35.0555556 L63.0277778,35.0555556 Z" id="Icon-路径"></path>
                <path d="M50,16.6666667 L50,42.0833333 L55.5555573,47.6388889 L55.5555573,16.6666667 C55.5573541,14.4147003 54.1995105,12.3844173 52.1175443,11.5260628 C50.0355781,10.6677083 47.6413938,11.1511027 46.0555556,12.75 L33.3333333,25.4722222 L37.25,29.3888889 L50,16.6666667 Z" id="Icon-路径"></path>
                <rect id="Icon-矩形" fill-opacity="0" x="0" y="0" width="100" height="100"></rect>
            </g>
        </g>
    </g>
</svg>