<?xml version="1.0" encoding="UTF-8"?>
<svg width="89px" height="16px" viewBox="0 0 89 16" version="1.1"
     xmlns="http://www.w3.org/2000/svg">
    <title>wave</title>
    <g id="wave" stroke="none" stroke-width="1" fill="none" fill-rule="evenodd">
        <g id="编组" transform="translate(1.000000, 1.000000)" fill="#000000" fill-rule="nonzero">
            <g id="Icon-编组" transform="translate(43.000000, -0.000000)">
                <path d="M7.71333333,0 C8.04102228,0 8.30666667,0.265644382 8.30666667,0.593333333 L8.30666667,13.6466667 C8.30666667,13.9743556 8.04102228,14.24 7.71333333,14.24 C7.38564438,14.24 7.12,13.9743556 7.12,13.6466667 L7.12,0.593333333 C7.12,0.265644382 7.38564438,0 7.71333333,0 Z M5.34,2.37333333 C5.66768895,2.37333333 5.93333333,2.63897772 5.93333333,2.96666667 L5.93333333,11.2733333 C5.93333333,11.6010223 5.66768895,11.8666667 5.34,11.8666667 C5.01231105,11.8666667 4.74666667,11.6010223 4.74666667,11.2733333 L4.74666667,2.96666667 C4.74666667,2.63897772 5.01231105,2.37333333 5.34,2.37333333 Z M10.0866667,2.37333333 C10.4143556,2.37333333 10.68,2.63897772 10.68,2.96666667 L10.68,11.2733333 C10.68,11.6010223 10.4143556,11.8666667 10.0866667,11.8666667 C9.75897772,11.8666667 9.49333333,11.6010223 9.49333333,11.2733333 L9.49333333,2.96666667 C9.49333333,2.63897772 9.75897772,2.37333333 10.0866667,2.37333333 Z M2.96666667,4.15333333 C3.29435562,4.15333333 3.56,4.41897772 3.56,4.74666667 L3.56,9.49333333 C3.56,9.82102228 3.29435562,10.0866667 2.96666667,10.0866667 C2.63897772,10.0866667 2.37333333,9.82102228 2.37333333,9.49333333 L2.37333333,4.74666667 C2.37333333,4.41897772 2.63897772,4.15333333 2.96666667,4.15333333 Z M12.46,4.15333333 C12.787689,4.15333333 13.0533333,4.41897772 13.0533333,4.74666667 L13.0533333,9.49333333 C13.0533333,9.82102228 12.787689,10.0866667 12.46,10.0866667 C12.132311,10.0866667 11.8666667,9.82102228 11.8666667,9.49333333 L11.8666667,4.74666667 C11.8666667,4.41897772 12.132311,4.15333333 12.46,4.15333333 Z M0.593333333,5.34 C0.921022285,5.34 1.18666667,5.60564438 1.18666667,5.93333333 L1.18666667,8.30666667 C1.18666667,8.63435562 0.921022285,8.9 0.593333333,8.9 C0.265644382,8.9 0,8.63435562 0,8.30666667 L0,5.93333333 C0,5.60564438 0.265644382,5.34 0.593333333,5.34 Z M14.8333333,5.34 C15.1610223,5.34 15.4266667,5.60564438 15.4266667,5.93333333 L15.4266667,8.30666667 C15.4266667,8.63435562 15.1610223,8.9 14.8333333,8.9 C14.5056444,8.9 14.24,8.63435562 14.24,8.30666667 L14.24,5.93333333 C14.24,5.60564438 14.5056444,5.34 14.8333333,5.34 Z" id="Icon-形状"></path>
            </g>
            <path d="M64.9533333,-2.66453526e-15 C65.2810223,-2.66453526e-15 65.5466667,0.265644382 65.5466667,0.593333333 L65.5466667,13.6466667 C65.5466667,13.9743556 65.2810223,14.24 64.9533333,14.24 C64.6256444,14.24 64.36,13.9743556 64.36,13.6466667 L64.36,0.593333333 C64.36,0.265644382 64.6256444,-2.66453526e-15 64.9533333,-2.66453526e-15 Z M62.58,2.37333333 C62.907689,2.37333333 63.1733333,2.63897772 63.1733333,2.96666667 L63.1733333,11.2733333 C63.1733333,11.6010223 62.907689,11.8666667 62.58,11.8666667 C62.252311,11.8666667 61.9866667,11.6010223 61.9866667,11.2733333 L61.9866667,2.96666667 C61.9866667,2.63897772 62.252311,2.37333333 62.58,2.37333333 Z M67.3266667,2.37333333 C67.6543556,2.37333333 67.92,2.63897772 67.92,2.96666667 L67.92,11.2733333 C67.92,11.6010223 67.6543556,11.8666667 67.3266667,11.8666667 C66.9989777,11.8666667 66.7333333,11.6010223 66.7333333,11.2733333 L66.7333333,2.96666667 C66.7333333,2.63897772 66.9989777,2.37333333 67.3266667,2.37333333 Z M60.2066667,4.15333333 C60.5343556,4.15333333 60.8,4.41897772 60.8,4.74666667 L60.8,9.49333333 C60.8,9.82102228 60.5343556,10.0866667 60.2066667,10.0866667 C59.8789777,10.0866667 59.6133333,9.82102228 59.6133333,9.49333333 L59.6133333,4.74666667 C59.6133333,4.41897772 59.8789777,4.15333333 60.2066667,4.15333333 Z M69.7,4.15333333 C70.027689,4.15333333 70.2933333,4.41897772 70.2933333,4.74666667 L70.2933333,9.49333333 C70.2933333,9.82102228 70.027689,10.0866667 69.7,10.0866667 C69.372311,10.0866667 69.1066667,9.82102228 69.1066667,9.49333333 L69.1066667,4.74666667 C69.1066667,4.41897772 69.372311,4.15333333 69.7,4.15333333 Z M57.8333333,5.34 C58.1610223,5.34 58.4266667,5.60564438 58.4266667,5.93333333 L58.4266667,8.30666667 C58.4266667,8.63435562 58.1610223,8.9 57.8333333,8.9 C57.5056444,8.9 57.24,8.63435562 57.24,8.30666667 L57.24,5.93333333 C57.24,5.60564438 57.5056444,5.34 57.8333333,5.34 Z M72.0733333,5.34 C72.4010223,5.34 72.6666667,5.60564438 72.6666667,5.93333333 L72.6666667,8.30666667 C72.6666667,8.63435562 72.4010223,8.9 72.0733333,8.9 C71.7456444,8.9 71.48,8.63435562 71.48,8.30666667 L71.48,5.93333333 C71.48,5.60564438 71.7456444,5.34 72.0733333,5.34 Z" id="Icon-形状"></path>
            <path d="M79.1933333,-2.66453526e-15 C79.5210223,-2.66453526e-15 79.7866667,0.265644382 79.7866667,0.593333333 L79.7866667,13.6466667 C79.7866667,13.9743556 79.5210223,14.24 79.1933333,14.24 C78.8656444,14.24 78.6,13.9743556 78.6,13.6466667 L78.6,0.593333333 C78.6,0.265644382 78.8656444,-2.66453526e-15 79.1933333,-2.66453526e-15 Z M76.82,2.37333333 C77.147689,2.37333333 77.4133333,2.63897772 77.4133333,2.96666667 L77.4133333,11.2733333 C77.4133333,11.6010223 77.147689,11.8666667 76.82,11.8666667 C76.492311,11.8666667 76.2266667,11.6010223 76.2266667,11.2733333 L76.2266667,2.96666667 C76.2266667,2.63897772 76.492311,2.37333333 76.82,2.37333333 Z M81.5666667,2.37333333 C81.8943556,2.37333333 82.16,2.63897772 82.16,2.96666667 L82.16,11.2733333 C82.16,11.6010223 81.8943556,11.8666667 81.5666667,11.8666667 C81.2389777,11.8666667 80.9733333,11.6010223 80.9733333,11.2733333 L80.9733333,2.96666667 C80.9733333,2.63897772 81.2389777,2.37333333 81.5666667,2.37333333 Z M74.4466667,4.15333333 C74.7743556,4.15333333 75.04,4.41897772 75.04,4.74666667 L75.04,9.49333333 C75.04,9.82102228 74.7743556,10.0866667 74.4466667,10.0866667 C74.1189777,10.0866667 73.8533333,9.82102228 73.8533333,9.49333333 L73.8533333,4.74666667 C73.8533333,4.41897772 74.1189777,4.15333333 74.4466667,4.15333333 Z M83.94,4.15333333 C84.267689,4.15333333 84.5333333,4.41897772 84.5333333,4.74666667 L84.5333333,9.49333333 C84.5333333,9.82102228 84.267689,10.0866667 83.94,10.0866667 C83.612311,10.0866667 83.3466667,9.82102228 83.3466667,9.49333333 L83.3466667,4.74666667 C83.3466667,4.41897772 83.612311,4.15333333 83.94,4.15333333 Z M72.0733333,5.34 C72.4010223,5.34 72.6666667,5.60564438 72.6666667,5.93333333 L72.6666667,8.30666667 C72.6666667,8.63435562 72.4010223,8.9 72.0733333,8.9 C71.7456444,8.9 71.48,8.63435562 71.48,8.30666667 L71.48,5.93333333 C71.48,5.60564438 71.7456444,5.34 72.0733333,5.34 Z M86.3133333,5.34 C86.6410223,5.34 86.9066667,5.60564438 86.9066667,5.93333333 L86.9066667,8.30666667 C86.9066667,8.63435562 86.6410223,8.9 86.3133333,8.9 C85.9856444,8.9 85.72,8.63435562 85.72,8.30666667 L85.72,5.93333333 C85.72,5.60564438 85.9856444,5.34 86.3133333,5.34 Z" id="Icon-形状"></path>
            <g id="Icon-编组" transform="translate(-0.000000, -0.000000)">
                <path d="M7.71333333,0 C8.04102228,0 8.30666667,0.265644382 8.30666667,0.593333333 L8.30666667,13.6466667 C8.30666667,13.9743556 8.04102228,14.24 7.71333333,14.24 C7.38564438,14.24 7.12,13.9743556 7.12,13.6466667 L7.12,0.593333333 C7.12,0.265644382 7.38564438,0 7.71333333,0 Z M5.34,2.37333333 C5.66768895,2.37333333 5.93333333,2.63897772 5.93333333,2.96666667 L5.93333333,11.2733333 C5.93333333,11.6010223 5.66768895,11.8666667 5.34,11.8666667 C5.01231105,11.8666667 4.74666667,11.6010223 4.74666667,11.2733333 L4.74666667,2.96666667 C4.74666667,2.63897772 5.01231105,2.37333333 5.34,2.37333333 Z M10.0866667,2.37333333 C10.4143556,2.37333333 10.68,2.63897772 10.68,2.96666667 L10.68,11.2733333 C10.68,11.6010223 10.4143556,11.8666667 10.0866667,11.8666667 C9.75897772,11.8666667 9.49333333,11.6010223 9.49333333,11.2733333 L9.49333333,2.96666667 C9.49333333,2.63897772 9.75897772,2.37333333 10.0866667,2.37333333 Z M2.96666667,4.15333333 C3.29435562,4.15333333 3.56,4.41897772 3.56,4.74666667 L3.56,9.49333333 C3.56,9.82102228 3.29435562,10.0866667 2.96666667,10.0866667 C2.63897772,10.0866667 2.37333333,9.82102228 2.37333333,9.49333333 L2.37333333,4.74666667 C2.37333333,4.41897772 2.63897772,4.15333333 2.96666667,4.15333333 Z M12.46,4.15333333 C12.787689,4.15333333 13.0533333,4.41897772 13.0533333,4.74666667 L13.0533333,9.49333333 C13.0533333,9.82102228 12.787689,10.0866667 12.46,10.0866667 C12.132311,10.0866667 11.8666667,9.82102228 11.8666667,9.49333333 L11.8666667,4.74666667 C11.8666667,4.41897772 12.132311,4.15333333 12.46,4.15333333 Z M0.593333333,5.34 C0.921022285,5.34 1.18666667,5.60564438 1.18666667,5.93333333 L1.18666667,8.30666667 C1.18666667,8.63435562 0.921022285,8.9 0.593333333,8.9 C0.265644382,8.9 0,8.63435562 0,8.30666667 L0,5.93333333 C0,5.60564438 0.265644382,5.34 0.593333333,5.34 Z M14.8333333,5.34 C15.1610223,5.34 15.4266667,5.60564438 15.4266667,5.93333333 L15.4266667,8.30666667 C15.4266667,8.63435562 15.1610223,8.9 14.8333333,8.9 C14.5056444,8.9 14.24,8.63435562 14.24,8.30666667 L14.24,5.93333333 C14.24,5.60564438 14.5056444,5.34 14.8333333,5.34 Z" id="Icon-形状"></path>
            </g>
            <path d="M21.9533333,-2.66453526e-15 C22.2810223,-2.66453526e-15 22.5466667,0.265644382 22.5466667,0.593333333 L22.5466667,13.6466667 C22.5466667,13.9743556 22.2810223,14.24 21.9533333,14.24 C21.6256444,14.24 21.36,13.9743556 21.36,13.6466667 L21.36,0.593333333 C21.36,0.265644382 21.6256444,-2.66453526e-15 21.9533333,-2.66453526e-15 Z M19.58,2.37333333 C19.907689,2.37333333 20.1733333,2.63897772 20.1733333,2.96666667 L20.1733333,11.2733333 C20.1733333,11.6010223 19.907689,11.8666667 19.58,11.8666667 C19.252311,11.8666667 18.9866667,11.6010223 18.9866667,11.2733333 L18.9866667,2.96666667 C18.9866667,2.63897772 19.252311,2.37333333 19.58,2.37333333 Z M24.3266667,2.37333333 C24.6543556,2.37333333 24.92,2.63897772 24.92,2.96666667 L24.92,11.2733333 C24.92,11.6010223 24.6543556,11.8666667 24.3266667,11.8666667 C23.9989777,11.8666667 23.7333333,11.6010223 23.7333333,11.2733333 L23.7333333,2.96666667 C23.7333333,2.63897772 23.9989777,2.37333333 24.3266667,2.37333333 Z M17.2066667,4.15333333 C17.5343556,4.15333333 17.8,4.41897772 17.8,4.74666667 L17.8,9.49333333 C17.8,9.82102228 17.5343556,10.0866667 17.2066667,10.0866667 C16.8789777,10.0866667 16.6133333,9.82102228 16.6133333,9.49333333 L16.6133333,4.74666667 C16.6133333,4.41897772 16.8789777,4.15333333 17.2066667,4.15333333 Z M26.7,4.15333333 C27.027689,4.15333333 27.2933333,4.41897772 27.2933333,4.74666667 L27.2933333,9.49333333 C27.2933333,9.82102228 27.027689,10.0866667 26.7,10.0866667 C26.372311,10.0866667 26.1066667,9.82102228 26.1066667,9.49333333 L26.1066667,4.74666667 C26.1066667,4.41897772 26.372311,4.15333333 26.7,4.15333333 Z M14.8333333,5.34 C15.1610223,5.34 15.4266667,5.60564438 15.4266667,5.93333333 L15.4266667,8.30666667 C15.4266667,8.63435562 15.1610223,8.9 14.8333333,8.9 C14.5056444,8.9 14.24,8.63435562 14.24,8.30666667 L14.24,5.93333333 C14.24,5.60564438 14.5056444,5.34 14.8333333,5.34 Z M29.0733333,5.34 C29.4010223,5.34 29.6666667,5.60564438 29.6666667,5.93333333 L29.6666667,8.30666667 C29.6666667,8.63435562 29.4010223,8.9 29.0733333,8.9 C28.7456444,8.9 28.48,8.63435562 28.48,8.30666667 L28.48,5.93333333 C28.48,5.60564438 28.7456444,5.34 29.0733333,5.34 Z" id="Icon-形状"></path>
            <path d="M36.1933333,-2.66453526e-15 C36.5210223,-2.66453526e-15 36.7866667,0.265644382 36.7866667,0.593333333 L36.7866667,13.6466667 C36.7866667,13.9743556 36.5210223,14.24 36.1933333,14.24 C35.8656444,14.24 35.6,13.9743556 35.6,13.6466667 L35.6,0.593333333 C35.6,0.265644382 35.8656444,-2.66453526e-15 36.1933333,-2.66453526e-15 Z M33.82,2.37333333 C34.147689,2.37333333 34.4133333,2.63897772 34.4133333,2.96666667 L34.4133333,11.2733333 C34.4133333,11.6010223 34.147689,11.8666667 33.82,11.8666667 C33.492311,11.8666667 33.2266667,11.6010223 33.2266667,11.2733333 L33.2266667,2.96666667 C33.2266667,2.63897772 33.492311,2.37333333 33.82,2.37333333 Z M38.5666667,2.37333333 C38.8943556,2.37333333 39.16,2.63897772 39.16,2.96666667 L39.16,11.2733333 C39.16,11.6010223 38.8943556,11.8666667 38.5666667,11.8666667 C38.2389777,11.8666667 37.9733333,11.6010223 37.9733333,11.2733333 L37.9733333,2.96666667 C37.9733333,2.63897772 38.2389777,2.37333333 38.5666667,2.37333333 Z M31.4466667,4.15333333 C31.7743556,4.15333333 32.04,4.41897772 32.04,4.74666667 L32.04,9.49333333 C32.04,9.82102228 31.7743556,10.0866667 31.4466667,10.0866667 C31.1189777,10.0866667 30.8533333,9.82102228 30.8533333,9.49333333 L30.8533333,4.74666667 C30.8533333,4.41897772 31.1189777,4.15333333 31.4466667,4.15333333 Z M40.94,4.15333333 C41.267689,4.15333333 41.5333333,4.41897772 41.5333333,4.74666667 L41.5333333,9.49333333 C41.5333333,9.82102228 41.267689,10.0866667 40.94,10.0866667 C40.612311,10.0866667 40.3466667,9.82102228 40.3466667,9.49333333 L40.3466667,4.74666667 C40.3466667,4.41897772 40.612311,4.15333333 40.94,4.15333333 Z M29.0733333,5.34 C29.4010223,5.34 29.6666667,5.60564438 29.6666667,5.93333333 L29.6666667,8.30666667 C29.6666667,8.63435562 29.4010223,8.9 29.0733333,8.9 C28.7456444,8.9 28.48,8.63435562 28.48,8.30666667 L28.48,5.93333333 C28.48,5.60564438 28.7456444,5.34 29.0733333,5.34 Z M43.3133333,5.34 C43.6410223,5.34 43.9066667,5.60564438 43.9066667,5.93333333 L43.9066667,8.30666667 C43.9066667,8.63435562 43.6410223,8.9 43.3133333,8.9 C42.9856444,8.9 42.72,8.63435562 42.72,8.30666667 L42.72,5.93333333 C42.72,5.60564438 42.9856444,5.34 43.3133333,5.34 Z" id="Icon-形状"></path>
        </g>
    </g>
</svg>