<?xml version="1.0" encoding="UTF-8"?>
<svg width="88px" height="86px" viewBox="0 0 88 86" version="1.1"
     xmlns="http://www.w3.org/2000/svg">
    <title>word</title>
    <g id="word" stroke="none" stroke-width="1" fill="none" fill-rule="evenodd">
        <g id="vscode-icons:file-type-word2" fill-rule="nonzero">
            <g id="Icon">
                <path d="M51.925,0.259375 L51.925,8.2125 C62.55,8.271875 74.175,8.103125 84.803125,8.271875 C85.5631931,8.13970903 86.341079,8.37373722 86.9020527,8.90334071 C87.4630265,9.4329442 87.7413822,10.1960915 87.653125,10.9625 C87.821875,30.54375 87.6125,51.24375 87.753125,70.828125 C87.690625,72.078125 87.78125,74.321875 87.5875,75.56875 C87.340625,77.159375 86.63125,77.465625 85.034375,77.68125 C84.140625,77.803125 82.646875,77.7875 81.76875,77.828125 C73.04375,77.784375 64.325,77.79375 55.6,77.796875 L51.928125,77.796875 L51.928125,85.75625 L0.25,77.790625 L0.25,8.228125 L51.925,0.25625" id="Icon-路径" fill="#283C82"></path>
                <polyline id="Icon-路径" fill="#FFFFFF" points="51.925 11.19375 84.7375 11.19375 84.7375 74.8125 51.925 74.8125 51.925 66.859375 77.76875 66.859375 77.76875 62.884375 51.925 62.884375 51.925 57.915625 77.76875 57.915625 77.76875 53.9375 51.925 53.9375 51.925 48.96875 77.76875 48.96875 77.76875 44.990625 51.925 44.990625 51.925 40.021875 77.76875 40.021875 77.76875 36.04375 51.925 36.04375 51.925 31.075 77.76875 31.075 77.76875 27.096875 51.925 27.096875 51.925 22.128125 77.76875 22.128125 77.76875 18.15 51.925 18.15 51.925 11.19375"></polyline>
                <path d="M20.790625,28.759375 C22.665625,28.65 24.56875,28.571875 26.45625,28.471875 C27.778125,35.18125 29.13125,41.88125 30.5625,48.5625 C31.684375,41.6625 32.928125,34.784375 34.13125,27.896875 C36.1172187,27.8256834 38.1018675,27.7215023 40.084375,27.584375 C37.8375,37.215625 35.86875,46.928125 33.415625,56.503125 C31.75625,57.36875 29.271875,56.4625 27.303125,56.603125 C25.98125,50.021875 24.440625,43.478125 23.25625,36.871875 C22.09375,43.3125 20.58125,49.665625 19.25,56.046875 C17.3416667,55.946875 15.4260417,55.83125 13.503125,55.7 C11.853125,46.95 9.915625,38.265625 8.375,29.496875 C10.075,29.41875 11.784375,29.346875 13.484375,29.2875 C14.509375,35.61875 15.671875,41.921875 16.565625,48.2625 C17.965625,41.7625 19.4,35.259375 20.790625,28.759375" id="Icon-路径" fill="#FFFFFF"></path>
            </g>
        </g>
    </g>
</svg>